<svg width="26" height="26" viewBox="0 0 17 17" fill="none" xmlns="http://www.w3.org/2000/svg"><path fill-rule="evenodd" clip-rule="evenodd" d="M8.5 15.827l.143-.112c.343-.265.912-.687 1.132-.921.892-.946 2.13-2.314 2.927-4.261.795-1.948.993-3.906 1.019-5.206.022-1.142-.078-2.043-.265-3.136l-.608.44c-.033.023-.809.587-1.775 1.613-.772.819-1.796 2.078-2.573 3.664-.777-1.586-1.801-2.845-2.573-3.664-.966-1.025-1.742-1.59-1.775-1.614l-.608-.44c-.187 1.094-.287 1.995-.265 3.137.026 1.3.224 3.258 1.02 5.206.795 1.948 2.034 3.315 2.926 4.262.22.234.79.655 1.132.92l.143.112z" fill="#019D8B"/><path fill-rule="evenodd" clip-rule="evenodd" d="M16.453 6.076l.052-.75-.695.284c-.122.05-2.783 1.155-4.86 3.612.004-.115.006-.23.006-.346 0-2.89-.946-5.584-2.456-8.007-1.51 2.423-2.456 5.117-2.456 8.007 0 .117.002.231.006.346C3.973 6.765 1.312 5.66 1.19 5.61l-.695-.283.052.749c.906 13.408 15 13.408 15.906 0z" fill="url(#prefix__prefix__paint0_linear_3502_12728)"/><path fill-rule="evenodd" clip-rule="evenodd" d="M9.324 12.9c.19 0 .268.073.268.256 0 .444-.49.804-1.093.804-.602 0-1.09-.36-1.09-.804 0-.183.077-.257.267-.257.101.004.204.015.304.031l.01.002c.167.027.34.043.51.046a3.62 3.62 0 00.51-.046c.104-.018.21-.03.314-.033z" fill="#019D8B"/><path d="M11.286 12.948a.879.879 0 11.001-1.757.879.879 0 010 1.757zm-5.571 0a.879.879 0 11.001-1.757.879.879 0 01-.001 1.757z" fill="#019D8B"/><defs><linearGradient id="prefix__prefix__paint0_linear_3502_12728" x1="8.5" y1="-.658" x2="8.5" y2="16.132" gradientUnits="userSpaceOnUse"><stop stop-color="#00B59C"/><stop offset="1" stop-color="#8EF8AB"/></linearGradient></defs></svg>