<svg xmlns="http://www.w3.org/2000/svg" viewBox="0 0 26 26" width="26" height="26"><defs><linearGradient id="prefix__a" x1=".5" y1="1.142" x2=".5" y2="-.105" gradientUnits="objectBoundingBox"><stop offset="0" stop-color="#f9a606"/><stop offset="1" stop-color="#fbcc5f"/></linearGradient></defs><circle data-name="Ellipse 1271" cx="13" cy="13" r="13" fill="url(#prefix__a)"/><path data-name="Path 7536" d="M20.709 10.855h-1.543a6.237 6.237 0 00-6.145-3.974H8.068v3.974h-1.72v1.426h1.72v1.5h-1.72v1.425h1.72v3.926h4.953a6.257 6.257 0 006.119-3.931h1.573v-1.426h-1.231a6.465 6.465 0 00.048-.771v-.035c0-.234-.013-.464-.035-.689h1.218v-1.426zM9.455 8.148h3.566a4.864 4.864 0 014.611 2.7H9.455zm3.566 9.7H9.455v-2.651h8.168a4.867 4.867 0 01-4.6 2.647zm5.074-4.81a5.127 5.127 0 01-.052.737H9.455v-1.498h8.593a5.636 5.636 0 01.048.724z" fill="#fff"/></svg>