<svg
  width="42"
  height="42"
  fill="none"
  xmlns="http://www.w3.org/2000/svg"
>
  <g clip-path="url(#prefix__clip0_1871_7999)">
    <path
      d="M11.774 41.656c10.557 0 10.557-.157 12.347-.689 2.34-.694-6.604-6.885-12.347-6.885-5.742 0-10.397 1.695-10.397 3.787 0 2.091 4.655 3.787 10.397 3.787z"
      fill="#000"
    />
    <path
      d="M35.746 9.453l.485.523-.424.574c-13.768 18.616-21.7 27.044-25.065 25.914-2.05-.689-4.105-2.76-6.16-5.767a42.47 42.47 0 01-2.019-3.277 35.69 35.69 0 01-.939-1.79c-.23-.482-.328-.78-.405-1.171l-.009-.047a3.992 3.992 0 00-.067-.31 18.788 18.788 0 01-.627-4.823C.516 8.917 8.916.516 19.28.516c3.246 0 6.374.827 9.147 2.378l.071.044c2.27 1.58 4.685 3.752 7.249 6.515zm-8.197-5.078a16.958 16.958 0 00-8.27-2.137c-9.412 0-17.041 7.63-17.041 17.04 0 1.496.192 2.966.568 4.383.038.14.054.22.094.423l.008.042c.05.252.102.413.27.764.165.346.496.986.889 1.692a40.772 40.772 0 001.935 3.144c1.858 2.717 3.7 4.572 5.288 5.106 2.12.712 10.098-7.733 22.706-24.729-2.29-2.416-4.44-4.325-6.447-5.728z"
      fill="#000"
    />
    <path
      d="M27.549 4.375a16.958 16.958 0 00-8.27-2.137c-9.412 0-17.041 7.63-17.041 17.04 0 1.496.192 2.966.568 4.383.038.14.054.22.094.423l.008.042c.05.252.102.413.27.764.165.346.496.986.889 1.692a40.772 40.772 0 001.935 3.144c1.858 2.717 3.7 4.572 5.288 5.106 2.12.712 10.098-7.733 22.706-24.729-2.29-2.416-4.44-4.325-6.447-5.728z"
      fill="#EC1C79"
    />
    <path
      d="M22.721 41.484c-10.362 0-18.762-8.4-18.762-18.763 0-10.362 8.4-18.762 18.762-18.762s18.763 8.4 18.763 18.762c0 10.363-8.4 18.763-18.763 18.763zm0-1.722c9.412 0 17.041-7.63 17.041-17.04 0-9.412-7.63-17.042-17.04-17.042-9.412 0-17.042 7.63-17.042 17.041 0 9.412 7.63 17.041 17.041 17.041z"
      fill="#000"
    />
    <path
      d="M22.721 39.762c9.412 0 17.041-7.63 17.041-17.04 0-9.412-7.63-17.042-17.04-17.042-9.412 0-17.042 7.63-17.042 17.041 0 9.412 7.63 17.041 17.041 17.041z"
      fill="#fff"
    />
    <path
      fill-rule="evenodd"
      clip-rule="evenodd"
      d="M9.974 26.212l-2.256-6.796h1.976l1.176 3.904 1.302-3.923h1.61l1.3 3.923 1.177-3.904h1.937l-2.255 6.796h-1.63l-1.358-3.884-1.35 3.884H9.974zm8.965-.048v-6.748h5.427v1.59h-3.577v1.023h3.24v1.474h-3.24v1.07h3.625v1.591h-5.475zm8.077 0v-5.109h-2.024v-1.639h5.919v1.64h-2.025v5.108h-1.87zm4.714 0v-6.748h1.87v2.526H36v-2.526h1.87v6.748H36V23.6h-2.4v2.564h-1.87z"
      fill="#000"
    />
    <path
      d="M1.634 17.387a.964.964 0 01.863-1.725L5.25 17.04a.964.964 0 01-.862 1.725l-2.755-1.377zM1.317 21.953a.964.964 0 11.808-1.75l2.754 1.27a.964.964 0 01-.808 1.751l-2.754-1.27z"
      fill="#000"
    />
  </g>
  <defs>
    <clipPath id="prefix__clip0_1871_7999">
      <path
        fill="#fff"
        d="M0 0h42v42H0z"
      />
    </clipPath>
  </defs>
</svg>
