<svg xmlns="http://www.w3.org/2000/svg" viewBox="0 0 26.891 26" width="25.891" height="26"><g><path d="M7.116 26.001c6.672 0 6.672-.1 7.8-.435 1.479-.439-4.174-4.351-7.8-4.351S.545 22.286.545 23.608s2.942 2.393 6.571 2.393z"/><path d="M22.265 5.648l.307.331-.268.363C13.602 18.106 8.589 23.433 6.463 22.719c-1.3-.435-2.594-1.744-3.893-3.645q-.686-1.006-1.276-2.071-.313-.557-.593-1.131a2.811 2.811 0 01-.256-.74l-.006-.03q-.017-.1-.042-.2a11.862 11.862 0 0117.243-13.4l.045.028a29.19 29.19 0 014.581 4.117zm-5.181-3.209A10.778 10.778 0 001.447 14.627c.024.088.034.139.059.267l.005.027a1.75 1.75 0 00.171.483c.1.219.313.623.562 1.069q.566 1.021 1.223 1.987c1.174 1.717 2.338 2.889 3.342 3.227 1.34.45 6.382-4.887 14.35-15.628a27.426 27.426 0 00-4.075-3.62z"/><path d="M17.085 2.44A10.778 10.778 0 001.451 14.628c.024.088.034.139.059.267l.005.027a1.75 1.75 0 00.171.483c.1.219.313.623.562 1.069q.566 1.021 1.223 1.987c1.174 1.717 2.338 2.889 3.342 3.227 1.34.45 6.382-4.887 14.35-15.628a27.426 27.426 0 00-4.074-3.62z" fill="#ec1c79"/><path d="M14.033 25.891a11.858 11.858 0 1111.858-11.858 11.857 11.857 0 01-11.858 11.858zm0-1.088a10.77 10.77 0 10-10.77-10.77 10.77 10.77 0 0010.77 10.77z"/><path d="M14.034 24.803a10.77 10.77 0 10-10.77-10.769 10.77 10.77 0 0010.77 10.769z" fill="#fff"/><path d="M5.978 16.236l-1.426-4.291h1.249l.743 2.467.823-2.479h1.017l.822 2.479.744-2.467h1.224l-1.425 4.291h-1.03l-.858-2.455-.854 2.455zm5.666-.03v-4.261h3.43v1h-2.261v.647h2.048v.932h-2.048v.676h2.291v1.005h-3.46zm5.1 0v-3.225h-1.275v-1.036h3.741v1.036h-1.276v3.228zm2.979 0v-4.261h1.182v1.6h1.517v-1.6h1.182v4.265h-1.178v-1.62h-1.517v1.62h-1.182z" fill-rule="evenodd"/><path d="M.703 10.663a.61.61 0 11.545-1.09l1.74.871a.61.61 0 01-.545 1.09l-1.74-.871zm-.2 2.885a.61.61 0 11.511-1.106l1.74.8a.609.609 0 01-.507 1.106l-1.744-.8z"/></g></svg>