<svg
   width="32"
   height="34"
   fill="none"
   xmlns="http://www.w3.org/2000/svg"
>
   <g clip-path="url(#prefix__clip0_1871_7961)">
      <path
         fill-rule="evenodd"
         clip-rule="evenodd"
         d="M29.344 3.35l-1.455 8.73-5.173-6.09 6.628-2.64zM27.89 15.799l1.294 4.796-9.916 2.749 8.622-7.545zM6.333 13.428l5.335-6.953h9.215l5.875 6.953H6.332zm19.778 1.67l-9.593 8.407-9.808-8.407h19.4zM9.889 5.99l-4.742 6.198L3.692 3.35l6.197 2.64zm3.773 17.354L3.638 20.595l1.347-4.688 8.677 7.437zm1.832 2.263l-1.886 2.048a34.676 34.676 0 00-5.228-4.042l7.114 1.994zm9.162-1.994a34.68 34.68 0 00-5.228 4.042l-1.94-2.102 7.168-1.94zM31.5.601l-10.401 4.15h-9.7L1.481.6l2.264 13.635-2.156 7.383 5.659 3.395a30.192 30.192 0 017.113 5.928l2.21 2.533 2.317-2.64c1.994-2.264 4.312-4.204 6.845-5.82l5.497-3.45-1.994-7.33L31.5.602z"
         fill="#fff"
      />
   </g>
   <defs>
      <clipPath id="prefix__clip0_1871_7961">
         <path
            fill="#fff"
            transform="translate(.5)"
            d="M0 0h31v34H0z"
         />
      </clipPath>
   </defs>
</svg>
