<?xml version="1.0" encoding="UTF-8" standalone="no"?>
<svg
   width="967.55908"
   height="967.55908"
   viewBox="0 0 967.55908 967.55908"
   version="1.1"
   id="svg35"
   sodipodi:docname="Shapeshift FOX Token Coin Icon 256x256.svg"
   inkscape:version="1.1 (c68e22c387, 2021-05-23)"
   xmlns:inkscape="http://www.inkscape.org/namespaces/inkscape"
   xmlns:sodipodi="http://sodipodi.sourceforge.net/DTD/sodipodi-0.dtd"
   xmlns="http://www.w3.org/2000/svg"
   xmlns:svg="http://www.w3.org/2000/svg"
   xmlns:rdf="http://www.w3.org/1999/02/22-rdf-syntax-ns#"
   xmlns:cc="http://creativecommons.org/ns#"
   xmlns:dc="http://purl.org/dc/elements/1.1/">
  <defs
     id="defs39" />
  <sodipodi:namedview
     id="namedview37"
     pagecolor="#ffffff"
     bordercolor="#666666"
     borderopacity="1.0"
     inkscape:pageshadow="2"
     inkscape:pageopacity="0.0"
     inkscape:pagecheckerboard="0"
     showgrid="false"
     inkscape:zoom="0.22933468"
     inkscape:cx="390.25934"
     inkscape:cy="473.10769"
     inkscape:window-width="1366"
     inkscape:window-height="705"
     inkscape:window-x="-8"
     inkscape:window-y="-8"
     inkscape:window-maximized="1"
     inkscape:current-layer="svg35" />
  <circle
     style="fill:#1a1a1a;fill-opacity:1;stroke-width:75.5906"
     id="path421"
     cx="483.77954"
     cy="483.77954"
     r="483.77954" />
  <!-- Generator: Sketch 55.1 (78136) - https://sketchapp.com -->
  <g
     id="Mock-Ups"
     stroke="none"
     stroke-width="1"
     fill="none"
     fill-rule="evenodd"
     transform="matrix(11.528268,0,0,11.528268,156.85707,160.76827)">
    <g
       id="Landing-Page"
       transform="translate(-769,-76)"
       fill="#fffffe">
      <g
         id="Nav"
         transform="translate(79,69)">
        <g
           id="SS_horizontal_White"
           transform="translate(690.0568,7.581451)">
          <g
             id="Mark"
             transform="translate(0.434395,0.356808)">
            <path
               d="M 51.669685,5.1038442 48.969734,21.299478 39.370683,9.9962121 Z m -2.641752,23.1613078 2.402905,8.876412 -18.373544,5.062853 z M 9.0310324,23.804121 18.881967,10.927826 H 35.989109 L 46.92347,23.804121 Z M 45.657067,26.98558 27.845024,42.530948 9.7028776,26.98558 Z M 15.583268,10.005528 6.7808402,21.510954 4.0776296,5.1662623 Z m 6.986165,32.193766 -18.5486052,-5.053537 2.541651,-8.661676 z m 3.424874,4.230456 -3.501696,3.854551 c -2.9672,-2.819528 -6.229583,-5.323239 -9.712189,-7.454771 z m 16.98376,-3.658911 c -3.482606,2.166001 -6.737074,4.702318 -9.68565,7.548863 L 29.716692,46.424626 Z M 55.734278,0.06288391 36.419779,7.7463657 H 18.417775 L 0,0 4.183784,25.295634 0.16621532,38.988022 10.648024,45.257315 c 4.962714,2.968586 9.408159,6.682929 13.212488,11.039153 l 4.081354,4.673439 4.28342,-4.914727 c 3.675361,-4.217414 7.955522,-7.837664 12.721292,-10.760601 L 55.225855,38.988022 51.523956,25.314266 Z"
               id="Fill-16" />
          </g>
        </g>
      </g>
    </g>
  </g>
  <title
     id="title25">Mark</title>
  <desc
     id="desc27">Created with Sketch.</desc>
  <metadata
     id="metadata575">
    <rdf:RDF>
      <cc:Work
         rdf:about="">
        <dc:title>Mark</dc:title>
      </cc:Work>
    </rdf:RDF>
  </metadata>
</svg>
