<svg xmlns="http://www.w3.org/2000/svg" viewBox="0 0 23.742 26" width="23.742" height="26"><g><path d="M22.037 2.175l-1.151 6.9-4.091-4.812 5.242-2.088zm-1.15 9.846l1.023 3.793-7.843 2.174zm-17.05-1.875l4.219-5.5h7.288l4.647 5.5H3.837zm15.642 1.321l-7.587 6.649-7.756-6.65h15.343zm-12.83-7.2l-3.75 4.9-1.15-6.992zm2.984 13.725l-7.927-2.178 1.065-3.708 6.863 5.882zm1.449 1.79L9.591 21.4a27.425 27.425 0 00-4.135-3.2zm7.247-1.582a27.428 27.428 0 00-4.135 3.2l-1.534-1.662zM23.742 0l-8.223 3.283H7.844L0 0l1.791 10.784-1.706 5.839 4.476 2.685A23.879 23.879 0 0110.187 24l1.748 2 1.833-2.088a25.376 25.376 0 015.414-4.6l4.348-2.729-1.577-5.8L23.742 0z" fill="#fff" fill-rule="evenodd"/></g></svg>