<svg
  width="30"
  height="30"
  fill="none"
  xmlns="http://www.w3.org/2000/svg"
>
  <g
    clip-path="url(#prefix__clip0_1871_7923)"
    fill="#fff"
  >
    <path
      d="M8.818 17.082c.862 0 1.703-.288 2.383-.813L5.734 10.8a3.905 3.905 0 00.7 5.475 3.956 3.956 0 002.384.806zM25.08 13.178c0-.863-.288-1.704-.814-2.384L18.8 16.262a3.897 3.897 0 006.28-3.084z"
    />
    <path
      d="M27.834 7.227l-2.418 2.418a5.51 5.51 0 01-.694 7.76 5.506 5.506 0 01-7.066 0L15 20.06l-2.65-2.65a5.51 5.51 0 01-7.759-.694 5.506 5.506 0 010-7.065l-1.24-1.24-1.178-1.185A14.97 14.97 0 000 15c0 8.285 6.715 15 15 15s15-6.715 15-15c.007-2.74-.75-5.432-2.166-7.773z"
    />
    <path
      d="M25.85 4.647C20.139-1.346 10.648-1.57 4.654 4.143a17.14 17.14 0 00-.504.504c-.372.393-.722.8-1.052 1.227L15 17.783l11.902-11.91a14.51 14.51 0 00-1.052-1.226zM15 1.963c3.505 0 6.771 1.352 9.224 3.82L15 15.007 5.776 5.783c2.453-2.468 5.72-3.82 9.224-3.82z"
    />
  </g>
  <defs>
    <clipPath id="prefix__clip0_1871_7923">
      <path
        fill="#fff"
        d="M0 0h30v30H0z"
      />
    </clipPath>
  </defs>
</svg>
