<svg xmlns="http://www.w3.org/2000/svg" viewBox="0 0 26 25.999" width="26" height="25.999"><g fill="#fff"><path d="M7.644 14.804a3.386 3.386 0 002.065-.7L4.969 9.36a3.384 3.384 0 00.607 4.745 3.429 3.429 0 002.066.7zm14.092-3.384a3.382 3.382 0 00-.705-2.066l-4.737 4.739a3.377 3.377 0 005.443-2.673z"/><path d="M24.123 6.263l-2.1 2.1a4.775 4.775 0 01-6.723 6.721l-2.3 2.3-2.3-2.3a4.774 4.774 0 01-6.721-6.72L2.9 7.289 1.883 6.262a13 13 0 1022.24 0z"/><path d="M22.403 4.027a12.993 12.993 0 00-18.37-.437q-.223.214-.437.437a13.98 13.98 0 00-.909 1.063L13 15.411 23.315 5.089a12.575 12.575 0 00-.912-1.063zM13 1.699a11.169 11.169 0 017.994 3.311L13 13.004 5.006 5.011A11.171 11.171 0 0113 1.699z"/></g></svg>