<svg width="445" height="445" viewBox="0 0 445 445" fill="none" xmlns="http://www.w3.org/2000/svg">
<g clip-path="url(#clip0_0_3)">
<path d="M222.22 0C344.96 0 444.44 99.5 444.44 222.22C444.44 344.96 344.96 444.44 222.22 444.44C99.5 444.44 0 344.95 0 222.22C0 99.5 99.5 0 222.22 0Z" fill="#123629"/>
<path d="M235.74 237.28H320.18C321.98 237.28 322.83 237.28 322.96 234.92C323.65 226.33 323.65 217.69 322.96 209.09C322.96 207.42 322.13 206.73 320.32 206.73H152.27C150.19 206.73 149.63 207.42 149.63 209.37V234.09C149.63 237.28 149.63 237.28 152.96 237.28H235.74ZM313.53 177.84C313.77 177.21 313.77 176.52 313.53 175.9C312.12 172.83 310.45 169.9 308.51 167.15C305.59 162.45 302.15 158.12 298.23 154.23C296.38 151.88 294.24 149.77 291.84 147.98C279.82 137.75 265.53 130.51 250.17 126.87C242.42 125.13 234.5 124.3 226.56 124.37H151.98C149.9 124.37 149.62 125.2 149.62 127.01V176.31C149.62 178.39 149.62 178.95 152.26 178.95H312.53C312.53 178.95 313.92 178.67 314.2 177.84H313.52H313.53ZM313.53 266.17C311.17 265.91 308.79 265.91 306.43 266.17H152.41C150.33 266.17 149.63 266.17 149.63 268.95V317.15C149.63 319.37 149.63 319.93 152.41 319.93H223.52C226.92 320.19 230.32 319.95 233.65 319.24C243.97 318.5 254.12 316.26 263.8 312.57C267.32 311.35 270.72 309.76 273.93 307.85H274.9C291.57 299.18 305.11 285.56 313.65 268.84C313.65 268.84 314.62 266.74 313.53 266.19V266.17ZM121.72 344.92V344.09V311.73V300.76V268.12C121.72 266.31 121.72 266.04 119.5 266.04H89.36C87.69 266.04 87 266.04 87 263.82V237.43H119.22C121.02 237.43 121.72 237.43 121.72 235.07V208.96C121.72 207.29 121.72 206.88 119.5 206.88H89.36C87.69 206.88 87 206.88 87 204.66V180.22C87 178.69 87 178.28 89.22 178.28H119.08C121.16 178.28 121.72 178.28 121.72 175.64V100.78C121.72 98.56 121.72 98 124.5 98H228.66C236.22 98.3 243.73 99.13 251.16 100.5C266.47 103.33 281.18 108.8 294.63 116.61C303.55 121.86 311.76 128.2 319.07 135.5C324.57 141.21 329.53 147.39 333.93 153.97C338.3 160.64 341.93 167.77 344.78 175.22C345.13 177.16 346.99 178.47 348.93 178.14H373.79C376.98 178.14 376.98 178.14 377.12 181.2V203.98C377.12 206.2 376.29 206.76 374.06 206.76H354.89C352.95 206.76 352.39 206.76 352.53 209.26C353.29 217.72 353.29 226.21 352.53 234.67C352.53 237.03 352.53 237.31 355.18 237.31H377.11C378.08 238.56 377.11 239.81 377.11 241.07C377.25 242.68 377.25 244.31 377.11 245.92V262.73C377.11 265.09 376.42 265.79 374.33 265.79H348.08C346.25 265.44 344.47 266.61 344.05 268.43C337.8 284.68 327.8 299.25 314.88 310.93C310.16 315.18 305.2 319.18 300.02 322.87C294.46 326.07 289.05 329.4 283.35 332.04C272.86 336.76 261.86 340.24 250.57 342.45C239.85 344.37 228.98 345.24 218.07 345.09H121.68V344.95L121.72 344.92Z" fill="#F4B632"/>
</g>
<defs>
<clipPath id="clip0_0_3">
<rect width="444.44" height="444.44" fill="white"/>
</clipPath>
</defs>
</svg>
