<svg width="1167" height="1167" viewBox="0 0 1167 1167" fill="none" xmlns="http://www.w3.org/2000/svg">
<rect width="1167" height="1167" rx="583.5" fill="#162B22"/>
<path fill-rule="evenodd" clip-rule="evenodd" d="M378.708 711.187V875.25H630.192C790.451 875.25 920.366 744.629 920.366 583.5C920.366 422.371 790.451 291.75 630.192 291.75H378.708V455.813H306.793L306.791 496.671C306.79 524.879 329.533 547.748 357.59 547.748H378.708V619.252H357.589C329.535 619.252 306.792 642.118 306.79 670.325L306.789 711.187H378.708ZM630.192 383.684H470.146V455.813H654.76C705.26 455.813 746.198 496.974 746.198 547.748H470.146V619.252H746.198C746.198 670.026 705.26 711.187 654.76 711.187H470.146V783.316H630.192C739.951 783.316 828.928 693.855 828.928 583.5C828.928 473.145 739.951 383.684 630.192 383.684Z" fill="#FFBE33"/>
</svg>
