<svg xmlns="http://www.w3.org/2000/svg" viewBox="0 0 26 26" width="26" height="26"><path d="M16.575 15.059c0-1.9-1.138-2.546-3.413-2.817-1.625-.216-1.95-.65-1.95-1.408s.542-1.246 1.625-1.246a1.6 1.6 0 011.787 1.137.409.409 0 00.38.271h.866a.37.37 0 00.379-.38v-.054a2.706 2.706 0 00-2.437-2.22v-1.3c0-.216-.162-.379-.433-.433h-.812c-.217 0-.38.162-.434.433v1.246a2.762 2.762 0 00-2.65 2.654c0 1.787 1.084 2.492 3.359 2.762 1.517.271 2 .6 2 1.462s-.759 1.463-1.788 1.463c-1.409 0-1.9-.6-2.059-1.408a.4.4 0 00-.38-.325h-.92a.37.37 0 00-.379.379v.054a3.024 3.024 0 002.87 2.6v1.3c0 .217.163.38.434.434h.812c.216 0 .379-.162.433-.434v-1.3a2.967 2.967 0 002.71-2.87z" fill="#fff"/><path d="M10.237 20.746a8.106 8.106 0 010-15.221.543.543 0 00.325-.541v-.759a.412.412 0 00-.325-.434.323.323 0 00-.216.055 9.747 9.747 0 000 18.579.329.329 0 00.488-.216c.054-.055.054-.109.054-.217v-.758a.72.72 0 00-.326-.488zm5.742-16.9a.329.329 0 00-.488.216c-.055.054-.055.109-.055.216v.759a.718.718 0 00.325.541 8.106 8.106 0 010 15.221.544.544 0 00-.325.541v.759a.413.413 0 00.325.434.325.325 0 00.217-.055 9.789 9.789 0 000-18.633z" fill="#fff"/></svg>