<svg
  width="36"
  height="32"
  fill="none"
  xmlns="http://www.w3.org/2000/svg"
>
  <g
    clip-path="url(#prefix__clip0_1871_8043)"
    fill-rule="evenodd"
    clip-rule="evenodd"
  >
    <path
      d="M6.592.496L.028 14.283a.267.267 0 00.057.312l17.728 16.988a.27.27 0 00.374 0l17.728-16.987a.267.267 0 00.057-.312L29.408.497a.265.265 0 00-.242-.155H6.837a.265.265 0 00-.244.154z"
      fill="#fff"
    />
    <path
      d="M20.278 15.7c-.128.009-.785.048-2.252.048a49.19 49.19 0 01-2.286-.049c-4.508-.198-7.874-.983-7.874-1.923 0-.94 3.366-1.723 7.874-1.925v3.067c.295.02 1.14.07 2.306.07 1.4 0 2.101-.058 2.227-.07v-3.064c4.5.2 7.857.985 7.857 1.922 0 .938-3.357 1.723-7.857 1.922l.005.001zm0-4.164V8.793h6.278V4.609H9.462v4.184h6.277v2.742c-5.102.235-8.94 1.245-8.94 2.457 0 1.21 3.838 2.22 8.94 2.456v8.793h4.538v-8.796c5.09-.235 8.921-1.244 8.921-2.454 0-1.21-3.827-2.22-8.921-2.456v.001z"
      fill="#50AF95"
    />
  </g>
  <defs>
    <clipPath id="prefix__clip0_1871_8043">
      <path
        fill="#fff"
        transform="translate(0 .342)"
        d="M0 0h36v31.316H0z"
      />
    </clipPath>
  </defs>
</svg>
