<svg height="26" width="26" viewBox="0 0 26 26" xmlns="http://www.w3.org/2000/svg"><defs><clipPath id="prefix__a"><path d="M0 0h26v26H0z"/></clipPath></defs><g fill-rule="evenodd" clip-path="url(#prefix__a)"><path d="M4.76 2.111L.019 12.069a.193.193 0 00.041.225l12.8 12.27a.2.2 0 00.27 0l12.8-12.269a.193.193 0 00.041-.225l-4.732-9.958A.191.191 0 0021.064 2H4.937a.191.191 0 00-.176.111z" fill="#fff"/><path d="M14.645 13.093c-.092.007-.567.035-1.627.035q-.826 0-1.651-.035c-3.256-.144-5.686-.711-5.686-1.39s2.43-1.245 5.687-1.39v2.215c.213.014.823.051 1.666.051 1.011 0 1.517-.042 1.608-.051v-2.213c3.25.144 5.675.711 5.675 1.388s-2.425 1.244-5.675 1.388zm0-3.007V8.104h4.534V5.082H6.833v3.022h4.534v1.98c-3.685.17-6.457.9-6.457 1.775s2.772 1.6 6.457 1.774v6.351h3.278v-6.353c3.676-.17 6.443-.9 6.443-1.772s-2.764-1.6-6.443-1.774z" fill="#50af95"/></g></svg>