<svg xmlns="http://www.w3.org/2000/svg" viewBox="0 0 26 26" width="26" height="26"><g fill="#fff"><path d="M21.201 5.456l-.714.714a10.106 10.106 0 010 13.64l.714.714a11.127 11.127 0 000-15.085zM6.187 5.518a10.106 10.106 0 0113.64 0l.714-.714a11.127 11.127 0 00-15.085 0zM5.518 19.818a10.106 10.106 0 010-13.633l-.714-.71a11.127 11.127 0 000 15.085zM19.817 20.477a10.106 10.106 0 01-13.64 0l-.714.714a11.127 11.127 0 0015.085 0zM17.507 10.618c-.143-1.49-1.428-1.989-3.053-2.142V6.425h-1.257v2.01h-1v-2.01h-1.251v2.066H8.398v1.344s.928-.017.914 0a.65.65 0 01.714.552v5.654a.441.441 0 01-.152.307.435.435 0 01-.324.109c.017.014-.914 0-.914 0l-.238 1.5h2.526v2.1h1.256V17.99h1v2.058h1.259v-2.074c2.123-.128 3.6-.652 3.788-2.639a2.139 2.139 0 00-1.8-2.6 1.942 1.942 0 001.08-2.117zm-1.761 4.469c0 1.561-2.675 1.383-3.527 1.383V13.7c.852.002 3.527-.243 3.527 1.387zm-.583-3.9c0 1.428-2.232 1.254-2.941 1.254v-2.52c.709 0 2.941-.224 2.941 1.264z"/><path d="M13 26a13 13 0 114.976-.989A13 13 0 0113 26zm0-24.986a11.979 11.979 0 104.588.91A11.979 11.979 0 0013 1.014z"/></g></svg>