<svg
  width="38"
  height="38"
  viewBox="0 0 38 38"
  fill="none"
  xmlns="http://www.w3.org/2000/svg"
>
  <path
    d="M30.985 7.97491L29.9416 9.01829C32.4313 11.7409 33.8119 15.2967 33.8119 18.9861C33.8119 22.6754 32.4313 26.2312 29.9416 28.9539L30.985 29.9972C33.7538 26.994 35.291 23.0587 35.291 18.9739C35.291 14.8891 33.7538 10.9538 30.985 7.95056V7.97491Z"
    fill="white"
  />
  <path
    d="M9.04264 8.06532C11.7653 5.57564 15.3211 4.19498 19.0104 4.19498C22.6998 4.19498 26.2556 5.57564 28.9782 8.06532L30.0216 7.02194C27.0183 4.25315 23.0831 2.71594 18.9983 2.71594C14.9134 2.71594 10.9782 4.25315 7.97491 7.02194L9.04264 8.06532Z"
    fill="white"
  />
  <path
    d="M8.06535 28.9643C5.57862 26.2423 4.19978 22.6886 4.19978 19.0017C4.19978 15.3148 5.57862 11.7612 8.06535 9.03917L7.02197 7.99579C4.25318 10.9991 2.71597 14.9343 2.71597 19.0191C2.71597 23.104 4.25318 27.0392 7.02197 30.0425L8.06535 28.9643Z"
    fill="white"
  />
  <path
    d="M28.9643 29.9277C26.2417 32.4174 22.6859 33.798 18.9965 33.798C15.3072 33.798 11.7514 32.4174 9.02873 29.9277L7.98535 30.9711C10.9886 33.7398 14.9239 35.2771 19.0087 35.2771C23.0935 35.2771 27.0288 33.7398 30.032 30.9711L28.9643 29.9277Z"
    fill="white"
  />
  <path
    d="M25.5872 15.5186C25.3785 13.3414 23.5004 12.611 21.125 12.3884V9.39044H19.2887V12.3328C18.8052 12.3328 18.3114 12.3328 17.821 12.3328V9.39044H15.9985V12.4093H12.2737V14.3743C12.2737 14.3743 13.63 14.35 13.6092 14.3743C13.8538 14.3474 14.0992 14.4165 14.2938 14.567C14.4885 14.7175 14.6171 14.9377 14.6526 15.1812V23.4448C14.6473 23.5307 14.6249 23.6146 14.5867 23.6917C14.5485 23.7687 14.4952 23.8374 14.43 23.8935C14.366 23.9506 14.2911 23.9943 14.2098 24.0218C14.1285 24.0493 14.0425 24.06 13.957 24.0534C13.9813 24.0743 12.6214 24.0534 12.6214 24.0534L12.2737 26.248H15.9637V29.3156H17.8001V26.2932H19.2678V29.3017H21.1076V26.2689C24.2099 26.0811 26.3732 25.3159 26.6445 22.4119C26.8636 20.0747 25.7646 19.0313 24.0082 18.6105C25.076 18.0853 25.7368 17.1115 25.5872 15.5186ZM23.0135 22.0502C23.0135 24.3317 19.1043 24.0708 17.8592 24.0708V20.0225C19.1043 20.026 23.0135 19.6678 23.0135 22.0502ZM22.1614 16.3463C22.1614 18.4331 18.8991 18.1792 17.8627 18.1792V14.4995C18.8991 14.4995 22.1614 14.1726 22.1614 16.3463Z"
    fill="white"
  />
  <path
    d="M18.9965 38C15.239 37.9993 11.566 36.8845 8.442 34.7965C5.318 32.7085 2.88327 29.741 1.44563 26.2694C0.00799802 22.7977 -0.367972 18.9778 0.365258 15.2924C1.09849 11.6071 2.90799 8.22197 5.56498 5.56498C8.22197 2.90799 11.6071 1.09849 15.2924 0.365258C18.9778 -0.367972 22.7977 0.00799802 26.2694 1.44563C29.741 2.88327 32.7085 5.318 34.7965 8.442C36.8845 11.566 37.9993 15.239 38 18.9965C38.0005 21.4922 37.5092 23.9636 36.5544 26.2694C35.5995 28.5752 34.1998 30.6703 32.435 32.435C30.6703 34.1998 28.5752 35.5995 26.2694 36.5544C23.9636 37.5092 21.4922 38.0005 18.9965 38ZM18.9965 1.48161C15.5347 1.48436 12.1513 2.51335 9.27414 4.43851C6.39696 6.36368 4.15508 9.0986 2.83187 12.2976C1.50866 15.4966 1.16352 19.0161 1.84008 22.4112C2.51663 25.8063 4.18451 28.9246 6.6329 31.372C9.08129 33.8194 12.2003 35.4861 15.5957 36.1613C18.991 36.8365 22.5104 36.49 25.7088 35.1655C28.9073 33.841 31.6413 31.598 33.5654 28.7201C35.4894 25.8421 36.517 22.4584 36.5184 18.9965C36.5193 16.6956 36.0667 14.417 35.1864 12.2912C34.306 10.1653 33.0153 8.2338 31.388 6.60711C29.7607 4.98043 27.8286 3.69047 25.7024 2.811C23.5762 1.93152 21.2975 1.47978 18.9965 1.48161Z"
    fill="white"
  />
</svg>
