<svg
  width="26"
  height="26"
  fill="none"
  xmlns="http://www.w3.org/2000/svg"
>
  <path
    d="M24.148 1.892a3.554 3.554 0 00-5.017 0l-8.638 8.612a3.53 3.53 0 000 5l8.638 8.612a3.554 3.554 0 005.786-1.146 3.528 3.528 0 00-.77-3.855l-5.296-5.276a1.176 1.176 0 010-1.67l5.297-5.276a3.529 3.529 0 000-5z"
    fill="#04795B"
  />
  <path
    d="M19.13 24.115a3.541 3.541 0 005.016-5l-8.639-8.612a3.542 3.542 0 00-5.016 5l8.639 8.612z"
    fill="#0DB50A"
  />
  <path
    d="M15.51 10.504L6.87 1.892a3.542 3.542 0 10-5.017 5.001l5.293 5.276a1.177 1.177 0 010 1.67l-5.293 5.276a3.542 3.542 0 005.017 5.001l6.128-6.113 2.51-2.498a3.53 3.53 0 000-5.001zM21.637 7.93a3.536 3.536 0 10-.022-7.07 3.536 3.536 0 00.022 7.07z"
    fill="#0AE33A"
  />
</svg>
