<?xml version="1.0" encoding="utf-8"?>
<!-- Generator: Adobe Illustrator 27.2.0, SVG Export Plug-In . SVG Version: 6.00 Build 0)  -->
<svg version="1.1" xmlns="http://www.w3.org/2000/svg" xmlns:xlink="http://www.w3.org/1999/xlink" x="0px" y="0px"
	 viewBox="0 0 32 32" style="enable-background:new 0 0 32 32;" xml:space="preserve">
<style type="text/css">
	.st0{fill:#019D8B;}
	.st1{clip-path:url(#SVGID_00000009567971474553317250000009566684508584836283_);}
	
		.st2{fill-rule:evenodd;clip-rule:evenodd;fill:url(#SVGID_00000075868648586944561180000009395483418956744633_);fill-opacity:0.6;}
	.st3{fill-rule:evenodd;clip-rule:evenodd;fill:#FFFFFF;}
</style>
<g id="Layer_2">
	<g>
		<path class="st0" d="M32,28c0,2.2-1.8,4-4,4H4c-2.2,0-4-1.8-4-4V4c0-2.2,1.8-4,4-4h24c2.2,0,4,1.8,4,4V28z"/>
	</g>
</g>
<g id="logo">
	<g>
		<defs>
			<rect id="SVGID_1_" x="0.7" y="1.5" width="30.6" height="29"/>
		</defs>
		<clipPath id="SVGID_00000170246119904454266700000014667106809708681346_">
			<use xlink:href="#SVGID_1_"  style="overflow:visible;"/>
		</clipPath>
		<g style="clip-path:url(#SVGID_00000170246119904454266700000014667106809708681346_);">
			
				<linearGradient id="SVGID_00000059274984316324186190000002696202099191917440_" gradientUnits="userSpaceOnUse" x1="15.9997" y1="25.9801" x2="15.9997" y2="14.6198" gradientTransform="matrix(1 0 0 -1 0 30)">
				<stop  offset="0" style="stop-color:#FFFFFF"/>
				<stop  offset="1" style="stop-color:#FFFFFF;stop-opacity:0"/>
			</linearGradient>
			
				<path style="fill-rule:evenodd;clip-rule:evenodd;fill:url(#SVGID_00000059274984316324186190000002696202099191917440_);fill-opacity:0.6;" d="
				M6.1,11.8C6.1,11.2,6,10.5,6,10C6,7.3,6.3,5.5,6.3,5.4L6.5,4l1.2,0.8c0.1,0,1.5,1.1,3.4,3.1c0.2,0.2,0.4,0.5,0.7,0.7l-0.1,0.2
				c-0.6,2.1-1.1,4.3-1.2,6.5c-1-1-2-1.8-2.9-2.5C7.1,12.5,6.6,12.1,6.1,11.8z M25.9,11.8c0.1-0.7,0.1-1.3,0.1-1.8
				c0.1-2.7-0.2-4.5-0.3-4.6L25.5,4l-1.2,0.8c-0.1,0-1.5,1.1-3.4,3.1c-0.2,0.2-0.4,0.5-0.7,0.7l0.1,0.2c0.6,2.1,1.1,4.3,1.2,6.5
				c1-1,2-1.8,2.9-2.5C24.9,12.5,25.4,12.1,25.9,11.8L25.9,11.8z"/>
			<path class="st3" d="M16,30.5C8.9,30.8,1.7,24.9,0.8,11.4L0.7,10L2,10.5c0.2,0.1,5.3,2.2,9.3,6.9c0-0.2,0-0.4,0-0.7
				c0-5.5,1.8-10.6,4.7-15.3c2.9,4.6,4.7,9.8,4.7,15.3c0,0.2,0,0.4,0,0.7c4-4.7,9-6.8,9.3-6.9l1.3-0.5l-0.1,1.4
				C30.3,24.9,23.1,30.8,16,30.5L16,30.5z M14.4,24.6c-0.4,0-0.5,0.1-0.5,0.5c0,0.8,0.9,1.5,2.1,1.5c1.2,0,2.1-0.7,2.1-1.5
				c0-0.3-0.1-0.5-0.5-0.5c-0.2,0-0.4,0-0.6,0.1l0,0c-0.3,0.1-0.6,0.1-1,0.1c-0.3,0-0.7,0-1-0.1C14.8,24.6,14.6,24.6,14.4,24.6
				L14.4,24.6z M10.7,21.2c0.9,0,1.7,0.7,1.7,1.7c0,0.9-0.7,1.7-1.7,1.7c-0.9,0-1.7-0.7-1.7-1.7C9,21.9,9.8,21.2,10.7,21.2z
				 M21.3,21.2c0.9,0,1.7,0.7,1.7,1.7c0,0.9-0.7,1.7-1.7,1.7c-0.9,0-1.7-0.7-1.7-1.7C19.6,21.9,20.4,21.2,21.3,21.2z"/>
		</g>
	</g>
</g>
</svg>
